<?xml version="1.0" encoding="UTF-8"?>
<!-- Created with Inkscape (http://www.inkscape.org/) -->
<svg width="6.3416mm" height="5.5576mm" version="1.1" viewBox="0 0 3.805 3.3345" xmlns="http://www.w3.org/2000/svg" xmlns:cc="http://creativecommons.org/ns#" xmlns:dc="http://purl.org/dc/elements/1.1/" xmlns:rdf="http://www.w3.org/1999/02/22-rdf-syntax-ns#">
 <metadata>
  <rdf:RDF>
   <cc:Work rdf:about="">
    <dc:format>image/svg+xml</dc:format>
    <dc:type rdf:resource="http://purl.org/dc/dcmitype/StillImage"/>
    <dc:title/>
   </cc:Work>
  </rdf:RDF>
 </metadata>
 <g transform="translate(-44.175 -78.755)">
  <path id="Acritarcos" class="fil0 str0" d="m44.216 82.01c-0.066-0.042 1.02-0.852 1.296-1.332 0.294-0.522 0.396-1.842 0.456-1.884 0.042-0.03 0.156 0.342 0.198 0.732 0.036 0.348-0.156 0.924 0.03 1.122 0.192 0.204 0.786 0.276 1.116 0.51 0.342 0.246 0.678 0.858 0.624 0.84-0.09-0.03-0.744-0.54-1.008-0.66-0.396-0.186-0.906-0.18-1.122-0.144-0.408 0.072-0.618 0.276-0.948 0.66-0.192 0.228-0.516 0.228-0.642 0.15z" clip-rule="evenodd" fill="#fff" image-rendering="optimizeQuality" shape-rendering="geometricPrecision" stroke="#000" stroke-width=".0762"/>
 </g>
</svg>
