<?xml version="1.0" encoding="UTF-8"?>
<!-- Created with Inkscape (http://www.inkscape.org/) -->
<svg width="5.3471mm" height="6.147mm" version="1.1" viewBox="0 0 3.2083 3.6882" xmlns="http://www.w3.org/2000/svg" xmlns:cc="http://creativecommons.org/ns#" xmlns:dc="http://purl.org/dc/elements/1.1/" xmlns:rdf="http://www.w3.org/1999/02/22-rdf-syntax-ns#">
 <metadata>
  <rdf:RDF>
   <cc:Work rdf:about="">
    <dc:format>image/svg+xml</dc:format>
    <dc:type rdf:resource="http://purl.org/dc/dcmitype/StillImage"/>
    <dc:title/>
   </cc:Work>
  </rdf:RDF>
 </metadata>
 <g transform="translate(-46.313 -76.058)">
  <g id="Cefalópode_Genérico" transform="matrix(.006 0 0 .006 9.2354 -72.494)" clip-rule="evenodd" fill-rule="evenodd" image-rendering="optimizeQuality" shape-rendering="geometricPrecision" stroke="#000" stroke-width="12.7">
   <path class="fil0 str0" d="m6568 24799c84 55 140 151 140 259 0 171-138 309-309 309-83 0-158-33-213-85 0 0-2-51 36-111s87-88 87-88c-28-34-45-77-45-124 0-107 87-194 194-194 40 0 77 12 108 33z" fill="#fff" fill-rule="nonzero"/>
   <path class="fil2 str0" d="m6456 24956c0 8-6 14-14 14s-14-7-14-14c0-8 7-14 14-14 8 0 14 6 14 14z" fill-rule="nonzero"/>
   <line class="fil1 str0" x1="6308" x2="6451" y1="25083" y2="24966" fill="none"/>
  </g>
 </g>
</svg>
