<?xml version="1.0" encoding="UTF-8"?>
<!-- Created with Inkscape (http://www.inkscape.org/) -->
<svg width="6.167mm" height="6.127mm" version="1.1" viewBox="0 0 3.7002 3.6762" xmlns="http://www.w3.org/2000/svg" xmlns:cc="http://creativecommons.org/ns#" xmlns:dc="http://purl.org/dc/elements/1.1/" xmlns:rdf="http://www.w3.org/1999/02/22-rdf-syntax-ns#">
 <metadata>
  <rdf:RDF>
   <cc:Work rdf:about="">
    <dc:format>image/svg+xml</dc:format>
    <dc:type rdf:resource="http://purl.org/dc/dcmitype/StillImage"/>
    <dc:title/>
   </cc:Work>
  </rdf:RDF>
 </metadata>
 <g transform="translate(-45.58 -78.318)">
  <g id="Foramníferos_x0020_bentônicos" transform="matrix(.006 0 0 .006 -71.153 13.598)" clip-rule="evenodd" fill-rule="evenodd" image-rendering="optimizeQuality" shape-rendering="geometricPrecision" stroke="#000" stroke-width="12.7">
   <path class="fil1 str0" d="m20066 11091c0 167-135 302-302 302s-302-135-302-302" fill="none"/>
   <g fill="#fff" fill-rule="nonzero">
    <path class="fil0 str0" d="m19909 11305c74 0 134-60 134-134s-60-134-134-134-134 60-134 134 60 134 134 134z"/>
    <path class="fil0 str0" d="m19768 11061c74 0 134-60 134-134s-60-134-134-134-134 60-134 134 60 134 134 134z"/>
    <path class="fil0 str0" d="m19631 11306c74 0 134-60 134-134s-60-134-134-134-134 60-134 134 60 134 134 134z"/>
   </g>
  </g>
 </g>
</svg>
