<?xml version="1.0" encoding="UTF-8"?>
<!-- Created with Inkscape (http://www.inkscape.org/) -->
<svg width="6.3376mm" height="2.4925mm" version="1.1" viewBox="0 0 3.8026 1.4955" xmlns="http://www.w3.org/2000/svg" xmlns:cc="http://creativecommons.org/ns#" xmlns:dc="http://purl.org/dc/elements/1.1/" xmlns:rdf="http://www.w3.org/1999/02/22-rdf-syntax-ns#">
 <metadata>
  <rdf:RDF>
   <cc:Work rdf:about="">
    <dc:format>image/svg+xml</dc:format>
    <dc:type rdf:resource="http://purl.org/dc/dcmitype/StillImage"/>
    <dc:title/>
   </cc:Work>
  </rdf:RDF>
 </metadata>
 <g transform="translate(-45.478 -79.708)">
  <g id="Madeira_x0020_Fóssil" transform="matrix(.006 0 0 .006 -31.386 -24.726)" clip-rule="evenodd" fill-rule="evenodd" image-rendering="optimizeQuality" shape-rendering="geometricPrecision" stroke="#000" stroke-width="12.7">
   <path class="fil0 str0" d="m12817 17576c1 48 26 72 80 72s451 1 491 0 51-39 50-66c-2-27-22-65-65-66s-194-1-194-1 9-43 3-60c-7-18-63-45-110-43-42 2-60 47-81 83-10 18-75 12-104 12s-70 18-70 70z" fill="#fff" fill-rule="nonzero"/>
   <path class="fil1 str0" d="m13028 17435c-16 24 41 41 61 40 31-2 94 1 92-23m-320 60c22-8 32 39 32 63 0 34-4 77-28 69m74-101h95m42 66h121m46-49 95-1" fill="none"/>
  </g>
 </g>
</svg>
