<?xml version="1.0" encoding="UTF-8"?>
<!-- Created with Inkscape (http://www.inkscape.org/) -->
<svg width="6.3186mm" height="4.3559mm" version="1.1" viewBox="0 0 3.7912 2.6135" xmlns="http://www.w3.org/2000/svg" xmlns:cc="http://creativecommons.org/ns#" xmlns:dc="http://purl.org/dc/elements/1.1/" xmlns:rdf="http://www.w3.org/1999/02/22-rdf-syntax-ns#">
 <metadata>
  <rdf:RDF>
   <cc:Work rdf:about="">
    <dc:format>image/svg+xml</dc:format>
    <dc:type rdf:resource="http://purl.org/dc/dcmitype/StillImage"/>
    <dc:title/>
   </cc:Work>
  </rdf:RDF>
 </metadata>
 <g transform="translate(-45.725 -76.379)">
  <g id="Pelecípodes_x0020__x0028_Bivalves_x0029_" transform="matrix(.006 0 0 .006 -30.971 36.996)" clip-rule="evenodd" fill-rule="evenodd" image-rendering="optimizeQuality" shape-rendering="geometricPrecision" stroke="#000" stroke-width="12.7">
   <path class="fil0 str0" d="m12790 6858c-14 37 121 173 324 125s311-153 292-269-182-149-201-143-293 127-325 167-74 80-89 120z" fill="#fff" fill-rule="nonzero"/>
   <path class="fil1 str0" d="m12880 6738c-22 45-49 163 69 181 119 18 258 1 325-48 67-50 131-110 126-177m-399-30c-29 42-51 112-4 138 47 25 157 41 252-22 96-62 120-107 115-141m-274-18c-19 26-53 94-12 116s116 20 172-17 79-81 74-112m-163-20c-18 28-16 81 32 82s111-32 103-76" fill="none"/>
  </g>
 </g>
</svg>
