<?xml version="1.0" encoding="UTF-8"?>
<!-- Created with Inkscape (http://www.inkscape.org/) -->
<svg width="5.3158mm" height="6.065mm" version="1.1" viewBox="0 0 3.1894 3.639" xmlns="http://www.w3.org/2000/svg" xmlns:cc="http://creativecommons.org/ns#" xmlns:dc="http://purl.org/dc/elements/1.1/" xmlns:rdf="http://www.w3.org/1999/02/22-rdf-syntax-ns#">
 <metadata>
  <rdf:RDF>
   <cc:Work rdf:about="">
    <dc:format>image/svg+xml</dc:format>
    <dc:type rdf:resource="http://purl.org/dc/dcmitype/StillImage"/>
    <dc:title/>
   </cc:Work>
  </rdf:RDF>
 </metadata>
 <g transform="translate(-43.923 -80.318)">
  <g id="Radiolários" transform="matrix(.006 0 0 .006 -73.073 -42.63)" clip-rule="evenodd" fill="#fff" image-rendering="optimizeQuality" shape-rendering="geometricPrecision" stroke="#000" stroke-width="12.7">
   <polygon class="fil0 str0" points="19765 20492 19784 20650 19747 20650"/>
   <polygon class="fil0 str0" points="19505 20942 19630 20847 19647 20879"/>
   <polygon class="fil0 str0" points="20026 20943 19881 20885 19899 20853"/>
   <path class="fil0 str0" d="m19911 20795c0 81-65 146-146 146s-146-65-146-146 65-146 146-146 146 65 146 146z"/>
   <polygon class="fil0 str0" points="20027 20645 19864 20767 19841 20726"/>
   <polygon class="fil0 str0" points="19503 20644 19690 20724 19667 20765"/>
   <polygon class="fil0 str0" points="19765 21097 19742 20894 19789 20894"/>
  </g>
 </g>
</svg>
