<?xml version="1.0" encoding="UTF-8"?>
<!-- Created with Inkscape (http://www.inkscape.org/) -->
<svg width="6.0052mm" height="2.8083mm" version="1.1" viewBox="0 0 6.0052 2.8083" xmlns="http://www.w3.org/2000/svg" xmlns:cc="http://creativecommons.org/ns#" xmlns:dc="http://purl.org/dc/elements/1.1/" xmlns:rdf="http://www.w3.org/1999/02/22-rdf-syntax-ns#">
 <metadata>
  <rdf:RDF>
   <cc:Work rdf:about="">
    <dc:format>image/svg+xml</dc:format>
    <dc:type rdf:resource="http://purl.org/dc/dcmitype/StillImage"/>
    <dc:title/>
   </cc:Work>
  </rdf:RDF>
 </metadata>
 <g transform="translate(-55.829 -109.73)">
  <g transform="matrix(.01 0 0 .01 -90.713 20.545)" clip-rule="evenodd" fill="none" fill-rule="evenodd" image-rendering="optimizeQuality" shape-rendering="geometricPrecision" stroke="#000" stroke-width="50">
   <path class="fil2 str1" d="m14656 8943c32 1 64 2 98 7s70 14 98 28 49 34 71 53c22 20 46 39 72 59 26 19 53 38 81 53 28 14 57 24 82 28s45 2 60 2 25 0 34 1"/>
   <path class="fil2 str1" d="m15253 8943c-32 1-64 2-98 7s-70 14-98 28-49 34-71 53c-22 20-46 39-72 59-26 19-53 38-81 53-28 14-57 24-82 28s-45 2-60 2-25 0-34 1"/>
  </g>
 </g>
</svg>
