<?xml version="1.0" encoding="UTF-8"?>
<!-- Created with Inkscape (http://www.inkscape.org/) -->
<svg width="10.702mm" height="2.2652mm" version="1.1" viewBox="0 0 10.702 2.2652" xmlns="http://www.w3.org/2000/svg" xmlns:cc="http://creativecommons.org/ns#" xmlns:dc="http://purl.org/dc/elements/1.1/" xmlns:rdf="http://www.w3.org/1999/02/22-rdf-syntax-ns#">
 <metadata>
  <rdf:RDF>
   <cc:Work rdf:about="">
    <dc:format>image/svg+xml</dc:format>
    <dc:type rdf:resource="http://purl.org/dc/dcmitype/StillImage"/>
    <dc:title/>
   </cc:Work>
  </rdf:RDF>
 </metadata>
 <g transform="translate(-60.927 -101.64)">
  <g transform="matrix(.01 0 0 .01 40.445 13.052)" clip-rule="evenodd" fill="none" fill-rule="evenodd" image-rendering="optimizeQuality" shape-rendering="geometricPrecision" stroke="#000" stroke-width="50">
   <path class="fil2 str1" d="m2064 9053c49-40 99-79 149-108s101-48 146-56 82-7 127 0c44 7 94 19 142 38s94 45 136 64c42 20 81 34 120 43s78 14 111 11c34-3 62-12 79-19 18-7 25-10 32-14"/>
   <path class="fil2 str1" d="m2115 9013c44 19 88 37 135 44s97 1 146-13 97-37 133-59 61-42 86-63"/>
  </g>
 </g>
</svg>
